<svg xmlns="http://www.w3.org/2000/svg" width="1024" height="1024" viewBox="0 0 1024 1024">
<g>
<path d="M 809.63 625.39 C817.34,615.27 817.06,614.30 814.65,612.77 C814.00,612.35 814.73,612.02 816.31,612.02 C818.18,612.01 818.88,612.39 818.40,613.15 C817.96,613.87 818.13,614.04 818.85,613.60 C818.98,613.51 819.10,613.43 819.21,613.36 C818.34,614.65 816.83,616.62 815.13,618.66 C813.35,620.80 811.49,623.08 809.63,625.39 ZM 804.09 663.05 C798.19,655.32 793.00,648.24 793.01,647.67 C793.01,647.03 795.37,643.52 798.26,639.88 C798.89,639.08 799.51,638.30 800.10,637.55 C795.97,642.99 793.04,647.12 793.03,647.67 C793.01,648.24 798.19,655.31 804.09,663.05 ZM 819.94 612.13 C819.68,611.76 818.81,611.49 817.26,611.31 C818.96,611.47 820.00,611.68 820.00,611.91 C820.00,611.96 819.98,612.04 819.94,612.13 Z" fill="rgba(0,0,0,1)"/>
<path d="M 388.61 556.27 C388.27,555.94 388.00,539.99 388.00,520.83 C388.00,493.61 387.73,486.01 386.75,486.04 C386.06,486.05 376.76,494.78 366.08,505.42 L 346.67 524.78 L 348.43 528.49 C350.80,533.49 349.83,538.11 345.47,542.47 C339.38,548.55 330.94,548.11 325.05,541.40 C322.62,538.64 322.00,537.02 322.00,533.47 C322.00,530.99 322.47,529.00 323.06,529.00 C323.45,529.00 323.68,528.81 323.69,528.53 C323.70,528.81 323.54,529.00 323.22,529.00 C322.02,529.00 323.35,537.51 324.82,539.28 C325.45,540.04 326.74,540.67 327.68,540.67 C330.04,540.67 335.26,535.24 336.97,531.00 C337.75,529.08 338.80,527.22 339.30,526.87 C339.80,526.53 339.91,525.29 339.54,524.12 C338.67,521.38 332.94,521.22 329.15,523.84 C327.69,524.85 325.68,525.97 324.69,526.33 C323.98,526.59 323.50,527.04 323.41,527.48 C323.45,527.09 323.69,526.69 324.09,526.44 C325.28,525.71 300.38,500.00 298.48,500.00 C298.03,500.00 296.60,500.53 294.97,501.28 C297.13,500.15 299.14,498.80 299.72,498.06 C300.39,497.20 300.96,496.95 300.98,497.50 C301.01,498.00 301.35,497.90 301.78,497.30 L 314.42 509.60 C322.12,517.09 326.11,520.56 327.95,521.30 C327.91,521.31 327.86,521.31 327.82,521.31 C326.90,521.38 326.37,521.78 326.63,522.21 C326.82,522.52 326.95,522.73 327.14,522.84 C327.59,523.09 328.39,522.72 331.14,521.45 C332.67,520.74 333.27,520.37 332.90,520.37 C333.13,520.33 333.37,520.29 333.59,520.26 C335.29,520.02 338.44,520.32 340.59,520.94 L 344.50 522.05 L 362.73 503.34 C372.76,493.05 380.74,484.40 380.46,484.13 C379.87,483.53 308.91,483.94 307.93,484.54 C307.56,484.77 306.99,486.32 306.65,487.99 C306.32,489.65 305.04,492.38 303.80,494.05 L 302.32 496.06 C302.81,493.41 300.06,489.32 294.15,483.88 C290.49,480.51 286.38,477.06 285.00,476.22 C283.62,475.37 280.80,473.56 278.73,472.19 C274.84,469.62 269.84,469.06 267.59,470.93 C267.01,471.40 266.28,471.58 265.78,471.41 C267.00,469.64 268.50,467.93 270.24,466.33 C277.57,459.60 286.72,458.19 295.47,462.42 L 300.43 464.83 L 316.56 449.16 C332.56,433.63 332.68,433.48 331.35,430.80 C329.49,427.08 329.66,424.06 331.96,420.30 C336.97,412.08 350.30,411.89 354.48,419.97 C356.37,423.61 356.40,426.12 354.60,430.42 L 353.20 433.77 L 369.82 450.38 C378.96,459.52 386.79,467.00 387.22,467.00 C387.65,467.00 388.00,450.35 388.00,430.00 L 388.00 393.00 L 319.00 393.00 L 319.00 339.00 L 524.50 339.05 L 539.00 324.02 L 553.50 308.99 L 607.63 309.00 L 661.76 309.00 L 607.13 309.18 C577.08,309.27 555.65,309.64 559.50,310.00 C563.35,310.36 565.63,310.73 564.56,310.82 C562.64,311.00 562.64,311.01 564.56,312.47 C566.20,313.71 573.79,313.94 613.79,313.97 L 652.35 313.99 L 608.24 314.22 L 555.43 314.50 L 539.47 331.00 C519.62,351.52 510.80,360.84 494.96,378.00 C488.11,385.42 482.05,391.83 481.50,392.23 C480.95,392.64 472.51,392.98 462.75,392.98 L 445.00 393.00 L 445.00 451.81 C445.00,497.37 444.72,510.96 443.75,512.16 C443.06,513.01 435.30,519.52 426.50,526.64 C417.70,533.76 405.71,543.48 399.86,548.23 C394.00,552.99 388.94,556.60 388.61,556.27 ZM 583.00 696.99 L 583.00 677.99 L 578.93 680.94 C572.37,685.68 566.09,687.30 556.14,686.80 C546.05,686.28 541.35,684.28 533.87,677.28 C521.80,665.99 518.98,646.65 527.02,630.31 C530.54,623.15 536.68,617.28 544.77,613.32 C555.46,608.09 573.11,609.23 579.03,615.53 C582.05,618.75 583.51,618.65 585.62,615.07 C587.25,612.31 587.77,612.13 594.80,611.82 C599.16,611.63 602.42,611.92 602.64,612.50 C602.85,613.05 602.90,635.75 602.76,662.95 L 602.50 712.41 L 594.00 714.13 C589.33,715.08 584.94,715.89 584.25,715.93 C583.29,715.98 583.00,711.57 583.00,696.99 ZM 623.50 556.27 L 544.50 555.99 L 515.68 527.24 C499.84,511.43 486.22,497.28 485.43,495.80 C484.26,493.59 484.00,486.04 484.00,454.05 L 484.00 415.00 L 540.00 415.00 L 540.02 444.75 L 540.03 474.50 L 549.97 484.54 C545.55,480.17 542.35,477.19 542.11,477.26 C541.42,477.45 536.76,475.02 536.00,474.08 C533.43,470.88 525.85,468.82 524.52,470.97 C524.19,471.50 520.94,473.36 517.30,475.10 C513.66,476.83 508.76,480.22 506.43,482.63 C504.09,485.03 501.43,487.00 500.52,487.00 C499.61,487.00 496.64,487.96 493.90,489.14 C489.14,491.19 488.94,491.42 489.15,494.99 L 489.37 498.70 L 499.94 499.87 C505.75,500.52 517.47,501.51 526.00,502.06 C534.53,502.62 547.25,503.45 554.29,503.91 C561.32,504.37 567.34,505.01 567.67,505.34 C568.31,505.97 556.53,531.17 549.23,544.77 C546.79,549.31 545.05,553.70 545.37,554.51 C545.86,555.79 556.29,556.03 624.22,556.27 C653.70,556.38 673.80,556.45 687.50,556.48 C673.69,556.46 653.37,556.38 623.50,556.27 ZM 372.49 685.26 C352.64,678.16 342.44,661.54 345.99,642.06 C348.34,629.12 355.86,619.33 367.80,613.67 C374.12,610.68 375.16,610.50 386.00,610.50 C396.65,610.50 397.89,610.71 402.79,613.29 C410.20,617.19 415.20,622.02 418.78,628.74 C422.00,634.79 424.38,645.30 423.83,651.09 L 423.50 654.50 L 395.25 654.77 C367.34,655.03 367.00,655.06 367.00,657.12 C367.00,660.67 372.56,666.56 378.19,668.99 C385.30,672.04 395.19,671.49 402.81,667.61 L 408.11 664.91 L 413.31 669.14 C416.16,671.47 418.85,673.66 419.28,674.02 C420.33,674.89 409.63,682.21 404.00,684.48 C397.27,687.19 379.14,687.64 372.49,685.26 ZM 237.45 685.12 C237.20,684.87 237.00,665.62 237.00,642.33 L 237.00 600.00 L 201.92 600.00 L 202.21 591.25 L 202.50 582.50 L 248.25 582.24 L 294.00 581.98 L 293.99 588.74 C293.98,594.02 294.22,596.84 292.94,598.34 C291.27,600.27 287.05,600.00 276.38,600.00 C267.37,600.00 259.90,600.11 259.78,600.25 C259.65,600.39 259.32,619.55 259.03,642.84 L 258.50 685.18 L 248.20 685.38 C242.54,685.49 237.70,685.37 237.45,685.12 ZM 436.43 685.08 C436.19,684.85 436.00,668.32 436.00,648.33 L 436.00 612.00 L 444.50 612.00 C449.17,612.00 453.34,611.99 453.75,611.97 C454.16,611.95 454.63,613.19 454.79,614.72 C455.36,620.12 455.78,620.41 459.26,617.75 C466.13,612.52 471.15,610.67 479.76,610.20 C491.25,609.57 496.14,611.12 502.62,617.44 C510.45,625.07 511.00,627.81 511.00,659.06 L 511.00 684.75 L 508.25 685.16 C506.74,685.39 502.35,685.56 498.50,685.54 L 491.50 685.50 L 491.00 660.33 C490.50,635.17 490.50,635.16 488.00,632.48 C484.42,628.65 480.73,627.00 475.75,627.00 C470.40,627.00 462.05,630.97 458.48,635.21 L 455.91 638.26 L 456.06 661.06 C456.14,673.60 455.91,684.33 455.56,684.90 C454.96,685.87 437.41,686.04 436.43,685.08 ZM 639.00 686.12 C630.26,683.25 624.38,678.29 621.08,671.00 C619.19,666.83 619.04,664.50 619.02,639.25 L 619.00 612.00 L 639.00 612.00 L 639.00 636.10 C639.00,663.32 639.26,664.46 646.26,667.62 C650.73,669.63 658.56,669.82 662.10,668.00 C665.12,666.44 669.81,662.12 671.34,659.50 C672.08,658.22 672.68,649.42 673.00,635.00 L 673.50 612.50 L 682.75 612.21 C687.84,612.05 692.00,612.28 692.00,612.71 C692.21,652.15 691.99,684.20 691.51,684.98 C690.79,686.14 673.94,686.40 674.12,685.25 C674.18,684.84 674.18,682.81 674.12,680.75 C673.98,676.45 672.33,675.87 669.40,679.11 C665.42,683.52 658.01,686.32 649.50,686.64 C645.10,686.81 640.38,686.57 639.00,686.12 ZM 739.84 685.22 C740.57,684.70 741.15,683.88 741.13,683.39 C741.11,682.90 744.13,678.67 747.85,674.00 C751.57,669.33 757.65,661.53 761.37,656.68 L 768.14 647.87 L 765.34 644.18 C763.80,642.16 757.92,634.49 752.27,627.15 C746.62,619.81 742.00,613.39 742.00,612.90 C742.00,612.40 746.24,612.00 751.42,612.00 C756.60,612.00 761.50,611.74 762.31,611.43 C763.35,611.04 766.12,614.20 771.54,621.93 C775.81,628.02 779.79,633.00 780.40,633.00 C781.00,633.00 785.27,628.05 789.87,622.00 L 798.24 611.00 L 809.12 611.00 C819.17,611.00 821.88,611.72 818.85,613.60 C818.13,614.04 817.96,613.87 818.40,613.15 C818.88,612.39 818.18,612.01 816.31,612.02 C814.73,612.02 814.00,612.35 814.65,612.77 C817.91,614.85 817.28,615.89 798.26,639.88 C795.37,643.52 793.01,647.03 793.01,647.67 C793.00,648.73 811.11,672.55 818.18,680.78 C819.73,682.59 821.00,684.50 821.00,685.03 C821.00,685.60 816.23,686.00 809.52,686.00 L 798.03 686.00 L 789.37 674.47 C784.60,668.12 780.21,663.10 779.60,663.30 C778.71,663.59 769.84,674.64 763.62,683.20 C762.63,684.56 760.03,685.02 750.44,685.53 C742.89,685.92 738.99,685.81 739.84,685.22 ZM 385.42 479.39 C386.30,479.05 387.00,477.63 387.00,476.18 C387.00,474.14 383.12,469.64 369.25,455.59 L 351.50 437.61 L 334.50 437.41 L 319.18 451.94 C307.14,463.36 303.96,466.90 304.36,468.48 C304.63,469.59 305.62,472.64 306.55,475.25 L 308.24 480.00 L 346.04 480.00 C366.83,480.00 384.55,479.73 385.42,479.39 ZM 293.90 685.29 C293.84,684.86 293.89,668.30 293.99,648.50 C294.13,622.51 294.51,612.30 295.34,611.77 C295.98,611.36 300.21,611.02 304.75,611.02 L 313.00 611.00 L 313.00 624.30 L 318.83 618.74 C325.18,612.68 331.61,610.00 339.76,610.00 C341.61,610.00 342.77,609.89 343.31,610.42 C344.23,611.31 343.37,614.04 341.15,622.27 L 339.47 628.50 L 334.45 629.12 C328.68,629.82 323.74,632.08 319.66,635.86 C314.28,640.86 314.00,642.25 314.00,663.98 C314.00,683.89 313.98,684.06 311.75,684.86 C308.74,685.94 294.03,686.30 293.90,685.29 ZM 709.67 685.03 C709.58,684.74 709.63,668.22 709.80,648.32 L 710.09 612.14 L 719.15 611.82 C724.12,611.64 728.40,611.83 728.65,612.23 C728.98,612.77 729.20,657.48 729.01,684.75 C729.00,685.68 726.53,685.94 719.42,685.78 C714.15,685.66 709.77,685.32 709.67,685.03 ZM 569.28 669.94 C573.61,668.74 579.44,663.98 581.53,659.94 C583.93,655.30 584.42,646.96 582.66,640.89 C578.02,624.95 557.91,621.76 547.57,635.33 C541.53,643.23 542.11,656.52 548.81,663.99 C554.29,670.10 561.33,672.15 569.28,669.94 ZM 404.44 639.75 C401.72,630.95 394.10,625.03 385.43,625.01 C377.83,624.99 366.00,633.80 366.00,639.48 L 366.00 642.00 L 405.13 642.00 ZM 713.31 597.05 C709.26,594.58 708.00,592.18 708.00,586.97 C708.00,583.56 708.62,582.18 711.40,579.40 C714.18,576.62 715.56,576.00 718.97,576.00 C726.61,576.00 730.94,579.89 730.98,586.79 C731.03,596.53 721.52,602.05 713.31,597.05 ZM 714.91 553.70 C709.54,547.96 690.98,529.23 669.08,507.50 C643.03,481.65 622.04,461.08 622.44,461.78 C622.84,462.49 621.66,462.15 619.83,461.04 C616.47,458.99 612.42,458.26 613.43,459.88 C613.73,460.37 611.24,460.96 607.91,461.20 C604.41,461.45 601.50,462.19 601.03,462.95 C600.53,463.77 599.03,464.08 597.05,463.79 C593.71,463.30 591.00,465.66 591.00,469.07 C591.00,472.17 599.14,483.25 608.54,492.94 C612.04,496.55 615.12,499.85 616.75,501.73 C613.87,498.56 606.31,490.80 597.50,482.00 C586.22,470.74 577.00,460.73 577.00,459.76 C577.00,458.14 578.64,458.00 598.22,458.00 L 619.43 458.00 L 667.94 506.25 C690.42,528.61 709.46,547.87 714.91,553.70 ZM 293.30 502.10 C288.31,504.57 282.73,504.59 277.68,502.86 C282.92,504.58 288.28,504.33 293.30,502.10 ZM 617.98 503.27 C617.99,503.31 618.00,503.33 618.00,503.34 C618.00,503.70 607.03,504.00 593.63,504.00 C606.67,504.00 617.41,503.68 617.98,503.27 ZM 264.61 473.28 C264.88,472.81 265.16,472.34 265.47,471.88 C265.78,472.51 265.65,473.00 265.16,473.00 C264.98,473.00 264.80,473.10 264.61,473.28 ZM 563.23 497.92 L 569.25 504.00 L 569.21 504.00 L 563.23 497.92 ZM 330.41 520.91 C330.94,520.77 331.53,520.63 332.12,520.51 C332.08,520.52 332.04,520.53 332.00,520.54 C331.51,520.67 330.96,520.80 330.41,520.91 ZM 265.50 493.52 C264.62,492.21 263.89,490.81 263.33,489.33 C263.89,490.78 264.62,492.19 265.50,493.52 ZM 262.05 481.43 C262.10,480.56 262.22,479.68 262.42,478.80 C262.24,479.67 262.11,480.57 262.05,481.43 ZM 715.27 556.25 C716.30,556.16 716.55,556.04 716.57,555.89 C716.58,555.82 716.54,555.74 716.50,555.64 C716.54,555.74 716.58,555.82 716.57,555.89 C716.55,556.04 716.30,556.16 715.27,556.25 Z" fill="rgba(5,23,79,1)"/>
<path d="M 624.22 556.27 C556.29,556.03 545.86,555.79 545.37,554.51 C545.05,553.70 546.79,549.31 549.23,544.77 C556.53,531.17 568.31,505.97 567.67,505.34 C567.34,505.01 561.32,504.37 554.29,503.91 C547.25,503.45 534.53,502.62 526.00,502.06 C517.47,501.51 505.75,500.52 499.94,499.87 L 489.37 498.70 L 489.15 494.99 C488.94,491.42 489.14,491.19 493.90,489.14 C496.64,487.96 499.61,487.00 500.52,487.00 C501.43,487.00 504.09,485.03 506.43,482.63 C508.76,480.22 513.66,476.83 517.30,475.10 C520.94,473.36 524.19,471.50 524.52,470.97 C525.85,468.82 533.43,470.88 536.00,474.08 C536.76,475.02 541.42,477.45 542.11,477.26 C542.45,477.17 548.69,483.15 555.97,490.55 L 569.21 504.00 L 593.61 504.00 C607.02,504.00 618.00,503.70 618.00,503.34 C618.00,502.98 613.74,498.30 608.54,492.94 C599.14,483.25 591.00,472.17 591.00,469.07 C591.00,465.66 593.71,463.30 597.05,463.79 C599.03,464.08 600.53,463.77 601.03,462.95 C601.50,462.19 604.41,461.45 607.91,461.20 C611.24,460.96 613.73,460.37 613.43,459.88 C612.42,458.26 616.47,458.99 619.83,461.04 C621.66,462.15 622.84,462.49 622.44,461.78 C622.04,461.08 643.03,481.65 669.08,507.50 C695.13,533.35 716.46,554.95 716.47,555.50 C716.51,556.68 723.01,556.62 624.22,556.27 ZM 324.82 539.28 C323.35,537.51 322.02,529.00 323.22,529.00 C323.71,529.00 323.84,528.55 323.50,527.99 C323.15,527.44 323.69,526.69 324.69,526.33 C325.68,525.97 327.69,524.85 329.15,523.84 C332.94,521.22 338.67,521.38 339.54,524.12 C339.91,525.29 339.80,526.53 339.30,526.87 C338.80,527.22 337.75,529.08 336.97,531.00 C335.26,535.24 330.04,540.67 327.68,540.67 C326.74,540.67 325.45,540.04 324.82,539.28 ZM 326.63 522.21 C326.37,521.78 326.90,521.38 327.82,521.31 C328.75,521.25 330.62,520.90 332.00,520.54 C333.59,520.13 333.28,520.45 331.14,521.45 C327.23,523.25 327.27,523.24 326.63,522.21 ZM 702.04 518.55 C701.05,517.35 704.41,513.48 721.43,496.19 L 742.03 475.27 L 741.76 439.39 C741.50,403.67 741.49,403.50 739.38,403.20 C738.17,403.02 737.00,403.56 736.66,404.43 C736.04,406.06 717.68,430.73 710.32,439.84 L 706.00 445.18 L 706.00 461.64 C706.00,479.05 705.49,481.45 700.98,485.50 C699.75,486.60 696.08,490.76 692.81,494.75 C689.54,498.74 686.33,502.00 685.68,502.00 C685.02,502.00 676.72,494.23 667.24,484.74 L 650.00 467.48 L 650.00 443.66 L 650.00 419.85 L 637.77 406.92 L 625.55 394.00 L 562.27 394.00 C527.47,394.00 499.00,393.75 499.00,393.44 C499.00,393.13 508.85,382.44 520.89,369.69 C532.93,356.93 543.99,345.04 545.48,343.25 L 548.18 340.00 L 598.32 340.00 L 648.46 340.00 L 677.23 368.77 L 706.00 397.54 L 706.00 416.77 C706.00,427.35 706.34,435.98 706.75,435.96 C707.16,435.93 713.45,427.96 720.73,418.23 L 733.96 400.55 L 731.03 397.52 C723.74,389.99 723.16,378.00 729.73,370.74 C731.31,369.00 730.36,367.88 710.95,348.41 C692.98,330.39 690.20,327.97 688.00,328.47 C678.23,330.69 673.44,329.92 667.86,325.23 C666.16,323.80 663.94,320.69 662.92,318.31 L 661.07 314.00 L 613.79 313.97 C573.79,313.94 566.20,313.71 564.56,312.47 C562.64,311.01 562.64,311.00 564.56,310.82 C565.63,310.73 563.35,310.36 559.50,310.00 C555.65,309.64 577.08,309.27 607.13,309.18 L 661.76 309.00 L 663.02 305.96 C666.18,298.31 672.67,294.00 681.00,294.00 C694.65,294.00 703.26,307.59 697.00,319.26 C695.90,321.31 695.00,323.59 695.00,324.32 C695.00,325.06 704.04,334.69 715.09,345.74 L 735.17 365.83 L 739.34 363.93 C745.15,361.29 752.57,361.45 758.26,364.33 L 762.87 366.66 L 774.54 354.96 L 786.21 343.26 L 784.51 340.65 C780.62,334.72 783.47,326.05 790.32,322.94 C795.73,320.49 798.49,320.52 802.66,323.10 C811.11,328.32 811.16,340.52 802.74,345.49 C800.50,346.82 798.47,347.12 794.51,346.71 L 789.27 346.17 L 777.18 357.84 C765.33,369.27 765.13,369.55 766.53,372.00 C768.94,376.23 770.17,382.04 769.49,386.06 C768.08,394.43 759.70,402.55 751.02,403.96 L 747.50 404.53 L 747.24 441.23 L 746.98 477.93 L 726.37 498.97 C715.03,510.54 705.19,520.00 704.50,520.00 C703.81,520.00 702.70,519.35 702.04,518.55 ZM 274.31 501.47 C267.13,497.89 262.00,490.02 262.00,482.58 C262.00,478.59 263.84,473.00 265.16,473.00 C265.69,473.00 265.79,472.44 265.40,471.75 C265.00,471.06 265.05,470.83 265.50,471.24 C265.95,471.65 266.89,471.51 267.59,470.93 C269.84,469.06 274.84,469.62 278.73,472.19 C280.80,473.56 283.62,475.37 285.00,476.22 C286.38,477.06 290.49,480.51 294.15,483.88 C300.91,490.10 303.53,494.56 301.91,497.11 C301.43,497.87 301.01,498.05 300.98,497.50 C300.96,496.95 300.39,497.20 299.72,498.06 C299.05,498.91 296.45,500.60 293.93,501.81 C287.66,504.82 280.80,504.70 274.31,501.47 Z" fill="rgba(103,29,233,1)"/>
</g>
</svg>